<?xml version="1.0" encoding="utf-8"?>
<!-- Generator: Adobe Illustrator 14.0.0, SVG Export Plug-In . SVG Version: 6.00 Build 43363)  -->
<!DOCTYPE svg PUBLIC "-//W3C//DTD SVG 1.1//EN" "http://www.w3.org/Graphics/SVG/1.1/DTD/svg11.dtd">
<svg version="1.1" id="studium_x5F_blanc" xmlns="http://www.w3.org/2000/svg" xmlns:xlink="http://www.w3.org/1999/xlink" x="0px"
	 y="0px" width="64.958px" height="25px" viewBox="0 0 64.958 25" enable-background="new 0 0 64.958 25" xml:space="preserve">
<g>
	<g id="StudiUM">
		<path fill="#FFFFFF" d="M42.145,20.566v-5.702h2.195v5.647c0,1.623,0.814,2.465,2.155,2.465c1.338,0,2.149-0.813,2.149-2.395
			v-5.718h2.196v5.632c0,3.023-1.696,4.504-4.375,4.504C43.786,25,42.145,23.504,42.145,20.566"/>
		<polygon fill="#FFFFFF" points="53.216,12.787 56.002,12.787 59.088,17.75 62.174,12.787 64.958,12.787 64.958,24.874 
			62.494,24.874 62.494,16.76 59.088,21.878 59.021,21.878 55.648,16.811 55.648,24.874 53.216,24.874 		"/>
		<path fill="#FFFFFF" d="M4.93,24.908c-0.912,0-1.784-0.153-2.616-0.465C1.479,24.136,0.709,23.658,0,23.018l1.25-1.484
			c0.572,0.494,1.152,0.875,1.738,1.139s1.25,0.396,1.991,0.396c0.644,0,1.153-0.135,1.53-0.404
			c0.376-0.271,0.564-0.631,0.564-1.082v-0.033c0-0.214-0.037-0.402-0.109-0.566c-0.075-0.162-0.209-0.317-0.407-0.464
			c-0.196-0.146-0.467-0.282-0.812-0.405C5.4,19.99,4.953,19.867,4.4,19.742c-0.632-0.146-1.193-0.313-1.685-0.498
			c-0.491-0.187-0.904-0.411-1.236-0.674c-0.333-0.266-0.587-0.591-0.761-0.972c-0.176-0.383-0.264-0.846-0.264-1.385V16.18
			c0-0.507,0.101-0.971,0.303-1.395c0.199-0.42,0.477-0.78,0.829-1.079c0.351-0.297,0.772-0.531,1.269-0.701
			c0.494-0.168,1.032-0.252,1.618-0.252c0.868,0,1.647,0.127,2.339,0.38c0.693,0.253,1.344,0.621,1.951,1.105l-1.116,1.569
			c-0.538-0.394-1.075-0.694-1.603-0.901c-0.529-0.209-1.065-0.313-1.605-0.313c-0.607,0-1.08,0.134-1.417,0.404
			c-0.338,0.27-0.508,0.602-0.508,0.996v0.033c0,0.227,0.04,0.426,0.119,0.6c0.079,0.175,0.222,0.333,0.433,0.473
			c0.209,0.143,0.496,0.271,0.862,0.396c0.368,0.125,0.833,0.254,1.397,0.389c0.621,0.158,1.17,0.332,1.65,0.523
			c0.479,0.191,0.876,0.425,1.193,0.701c0.316,0.274,0.555,0.597,0.718,0.963c0.165,0.363,0.246,0.789,0.246,1.274v0.033
			c0,0.553-0.103,1.047-0.31,1.485c-0.207,0.439-0.494,0.811-0.86,1.114c-0.37,0.304-0.813,0.535-1.328,0.692
			C6.117,24.83,5.549,24.908,4.93,24.908"/>
		<path fill="#FFFFFF" d="M10.762,22.416v-4.573H9.657v-1.71h1.104v-2.387h1.988v2.387h2.338v1.71H12.75v4.263
			c0,0.771,0.396,1.086,1.07,1.086c0.443,0,0.839-0.1,1.234-0.297v1.627c-0.494,0.281-1.053,0.445-1.795,0.445
			C11.797,24.967,10.762,24.325,10.762,22.416"/>
		<path fill="#FFFFFF" d="M16.83,21.659v-5.526h1.992v4.936c0,1.348,0.674,2.123,1.858,2.123c1.151,0,1.958-0.807,1.958-2.155
			v-4.903h1.99v8.687h-1.99v-1.349C22.078,24.293,21.273,25,19.924,25C17.966,25,16.83,23.684,16.83,21.659"/>
		<path fill="#FFFFFF" d="M26.36,20.492V20.46c0-2.881,1.958-4.509,4.03-4.509c1.431,0,2.336,0.723,2.961,1.53v-4.673h1.992v12.011
			h-1.992v-1.448C32.709,24.275,31.805,25,30.391,25C28.352,25,26.36,23.371,26.36,20.492 M33.385,20.492V20.46
			c0-1.68-1.185-2.78-2.518-2.78c-1.365,0-2.5,1.052-2.5,2.78v0.032c0,1.678,1.15,2.781,2.5,2.781
			C32.2,23.273,33.385,22.152,33.385,20.492"/>
		<rect x="37.773" y="12.808" fill="#FFFFFF" width="1.99" height="1.891"/>
		<rect x="37.78" y="16.188" fill="#FFFFFF" width="1.989" height="8.688"/>
	</g>
</g>
</svg>
