<?xml version="1.0" encoding="utf-8"?>
<!-- Generator: Adobe Illustrator 14.0.0, SVG Export Plug-In . SVG Version: 6.00 Build 43363)  -->
<!DOCTYPE svg PUBLIC "-//W3C//DTD SVG 1.1//EN" "http://www.w3.org/Graphics/SVG/1.1/DTD/svg11.dtd">
<svg version="1.1" id="udem_x5F_blanc" xmlns="http://www.w3.org/2000/svg" xmlns:xlink="http://www.w3.org/1999/xlink" x="0px"
	 y="0px" width="63.484px" height="25px" viewBox="0 0 63.484 25" enable-background="new 0 0 63.484 25" xml:space="preserve">
<g>
	<g id="UdeM">
		<path fill="#FFFFFF" d="M53.869,11.681v3.565l0.009,0.136l-0.137-0.009h-1.73l-0.137,0.009l0.008-0.136v-3.252
			c0-0.948-0.545-1.4-1.219-1.4c-0.673,0-1.219,0.452-1.219,1.4v3.252l0.008,0.136l-0.136-0.009h-1.731l-0.136,0.009l0.008-0.136
			v-3.252c0-1.77,1.435-3.206,3.206-3.206c0.754,0,1.445,0.262,1.993,0.697l0.039,0.118l0.038-0.114
			c0.056-0.061,0.114-0.12,0.174-0.176l0.117-0.027l-0.108-0.05c-0.473-0.527-0.763-1.222-0.763-1.986V0.136L52.145,0l0.137,0.009
			h1.73L54.148,0L54.14,0.136V7.25c0,0.77,0.445,1.139,0.992,1.139c0.549,0,0.992-0.369,0.992-1.139V0.136L56.115,0l0.137,0.009
			h1.731L58.119,0l-0.008,0.136V7.25c0,0.764-0.289,1.459-0.763,1.986l-0.109,0.05l0.119,0.027c0.06,0.056,0.117,0.115,0.175,0.176
			l0.037,0.114l0.039-0.118c0.547-0.435,1.239-0.697,1.992-0.697c1.771,0,3.206,1.436,3.206,3.206v3.252l0.009,0.136l-0.138-0.009
			h-1.729l-0.137,0.009l0.008-0.136v-3.252c0-0.948-0.546-1.4-1.219-1.4s-1.219,0.452-1.219,1.4v3.252l0.008,0.136l-0.137-0.009
			h-1.73l-0.136,0.009l0.008-0.136v-3.565c0-0.982-0.565-1.452-1.263-1.452C54.434,10.229,53.869,10.699,53.869,11.681"/>
		<path fill="#FFFFFF" d="M14.875,23.307c-0.254,0.198-0.566,0.371-1.042,0.371c-0.626,0-1.163-0.455-1.163-1.689
			c0-1.271,0.439-1.86,1.153-1.86c0.482,0,0.821,0.171,1.052,0.431V23.307z M14.875,24.152h1.831v-0.191l-0.678-0.162v-6.23h-1.881
			v0.213l0.728,0.203v2.104c-0.322-0.269-0.803-0.487-1.446-0.487c-1.143,0-1.986,1.002-1.986,2.397
			c0,1.427,0.771,2.255,1.996,2.255c0.595,0,1.092-0.229,1.436-0.545V24.152"/>
		<polygon fill="#FFFFFF" points="32.09,17.568 32.09,17.771 31.402,17.952 31.402,23.769 32.09,23.951 32.09,24.152 29.231,24.152 
			29.231,23.94 30.149,23.769 30.149,19.137 28.01,24.152 27.515,24.152 25.415,19.115 25.415,23.769 26.299,23.92 26.299,24.152 
			24.231,24.152 24.231,23.951 24.818,23.778 24.818,17.943 24.231,17.771 24.231,17.568 26.073,17.568 28.12,22.608 30.222,17.568 
					"/>
		<path fill="#FFFFFF" d="M34.963,19.926c0.789,0,1.204,0.879,1.204,1.992c0,1.102-0.415,2.012-1.204,2.012
			c-0.778,0-1.203-0.91-1.203-2.012C33.76,20.815,34.185,19.926,34.963,19.926 M34.963,19.601c-1.294,0-2.457,0.901-2.457,2.327
			c0,1.385,1.173,2.326,2.457,2.326c1.295,0,2.469-0.941,2.469-2.326C37.432,20.502,36.258,19.601,34.963,19.601"/>
		<path fill="#FFFFFF" d="M58.779,23.414c-0.232,0.151-0.435,0.304-0.799,0.304c-0.587,0.01-0.749-0.354-0.749-0.778
			c0-0.436,0.293-0.729,0.83-0.818l0.718-0.082V23.414z M58.779,20.977v0.758l-1.022,0.053c-0.991,0.029-1.608,0.565-1.608,1.304
			c0,0.748,0.556,1.163,1.295,1.163c0.607,0,1.042-0.293,1.335-0.506v0.404h1.676v-0.191l-0.543-0.162v-3.014
			c0-0.658-0.435-1.185-1.416-1.185c-1.002,0-1.629,0.284-1.983,0.435v1.043h0.5l0.166-0.865c0.116-0.049,0.426-0.156,0.922-0.115
			C58.697,20.146,58.77,20.563,58.779,20.977"/>
		<polygon fill="#FFFFFF" points="63.484,23.961 63.484,24.152 60.975,24.152 60.975,23.961 61.653,23.799 61.653,17.953 
			60.975,17.782 60.975,17.568 62.806,17.568 62.806,23.799 		"/>
		<path fill="#FFFFFF" d="M5.5,9.193L4.519,9V8.789h2.276V8.99L6.098,9.193v3.982c0,1.659-0.903,2.329-2.755,2.329
			c-1.896,0-2.666-0.726-2.666-2.225V9.163L0,8.99V8.789h2.913v0.223L1.921,9.183v4.036c0,1.222,0.416,1.823,1.689,1.823
			c1.381,0,1.89-0.623,1.89-1.934V9.193"/>
		<path fill="#FFFFFF" d="M9.419,15.181v0.192H6.961v-0.192l0.667-0.162v-3.763l-0.606-0.172v-0.211h1.759v0.687
			c0.203-0.171,0.84-0.738,1.659-0.738c0.85,0,1.285,0.476,1.285,1.305v2.882l0.648,0.162v0.202H9.985v-0.202l0.596-0.152v-2.761
			c0-0.435-0.131-0.819-0.677-0.819c-0.485,0-0.981,0.344-1.123,0.436v3.145L9.419,15.181"/>
		<polygon fill="#FFFFFF" points="14.604,15.019 15.271,15.182 15.271,15.373 12.773,15.373 12.773,15.182 13.452,15.019 
			13.452,11.256 12.843,11.084 12.843,10.873 14.604,10.873 		"/>
		<path fill="#FFFFFF" d="M14.665,9.325c0,0.343-0.304,0.626-0.667,0.626c-0.354,0-0.668-0.283-0.668-0.626
			c0-0.344,0.314-0.637,0.668-0.637C14.361,8.688,14.665,8.98,14.665,9.325"/>
		<polygon fill="#FFFFFF" points="34.471,15.019 35.138,15.182 35.138,15.373 32.64,15.373 32.64,15.182 33.318,15.019 
			33.318,11.256 32.712,11.084 32.712,10.873 34.471,10.873 		"/>
		<path fill="#FFFFFF" d="M34.531,9.325c0,0.343-0.303,0.626-0.667,0.626c-0.354,0-0.667-0.283-0.667-0.626
			c0-0.344,0.313-0.637,0.667-0.637C34.229,8.688,34.531,8.98,34.531,9.325"/>
		<polygon fill="#FFFFFF" points="15.637,11.186 15.313,11.055 15.313,10.873 17.498,10.873 17.498,11.055 16.8,11.227 
			17.803,13.967 18.799,11.207 18.191,11.055 18.191,10.873 19.688,10.873 19.688,11.055 19.324,11.227 17.611,15.444 
			17.237,15.444 		"/>
		<path fill="#FFFFFF" d="M22.861,12.491H21.07c0.101-0.769,0.405-1.335,0.941-1.335C22.617,11.156,22.82,11.864,22.861,12.491
			 M21.02,12.845h2.974c-0.032-1.245-0.679-2.024-1.983-2.024c-1.284,0-2.236,1.113-2.236,2.327c0,1.406,0.921,2.326,2.246,2.326
			c1.133,0,1.719-0.445,2.063-0.698l-0.191-0.304c-0.263,0.162-0.79,0.517-1.66,0.467C21.363,14.879,20.929,13.967,21.02,12.845"/>
		<path fill="#FFFFFF" d="M31.736,11.054l-0.1,1.104h-0.415l-0.102-0.75c-0.151-0.081-0.354-0.252-0.799-0.252
			c-0.364,0-0.647,0.192-0.647,0.586c0,0.466,0.516,0.647,1.032,0.88c0.496,0.213,1.304,0.516,1.304,1.314
			c0,0.911-0.748,1.538-1.648,1.538c-0.83,0-1.315-0.191-1.457-0.242l-0.081-1.225l0.425-0.041l0.243,0.83
			c0.121,0.092,0.455,0.354,0.86,0.344c0.577,0,0.85-0.303,0.85-0.738c0-0.516-0.719-0.738-1.194-0.96
			c-0.445-0.213-1.133-0.405-1.133-1.326c0-0.757,0.628-1.294,1.477-1.294C31.079,10.822,31.534,10.994,31.736,11.054"/>
		<polygon fill="#FFFFFF" points="42.803,9.386 42.368,8.739 40.821,9.951 41.073,10.317 		"/>
		<path fill="#FFFFFF" d="M41.953,12.491h-1.79c0.1-0.769,0.404-1.335,0.94-1.335C41.711,11.156,41.913,11.864,41.953,12.491
			 M40.112,12.845h2.974c-0.031-1.245-0.678-2.024-1.983-2.024c-1.284,0-2.235,1.113-2.235,2.327c0,1.406,0.92,2.326,2.245,2.326
			c1.133,0,1.72-0.445,2.064-0.698l-0.192-0.304c-0.264,0.162-0.789,0.517-1.66,0.467C40.456,14.879,40.021,13.967,40.112,12.845"/>
		<path fill="#FFFFFF" d="M27.8,10.829c-0.648,0-1.114,0.52-1.377,1.105h-0.021v-1.062h-1.831v0.186l0.678,0.198v3.762l-0.678,0.164
			v0.19h2.812V15.15l-0.981-0.161v-2.554c0.268-0.592,0.665-0.831,0.916-0.831c0.189,0,0.26,0.038,0.407,0.164
			c0.051,0.042,0.245,0.098,0.361,0.046c0.22-0.095,0.279-0.256,0.279-0.492C28.365,11.061,28.114,10.829,27.8,10.829"/>
		<path fill="#FFFFFF" d="M40.344,23.961v0.191h-2.458v-0.191l0.666-0.162v-3.763l-0.605-0.172v-0.212h1.759v0.688
			c0.202-0.173,0.84-0.738,1.659-0.738c0.849,0,1.284,0.476,1.284,1.306v2.882l0.648,0.162v0.201h-2.388v-0.201l0.597-0.152v-2.761
			c0-0.437-0.131-0.819-0.677-0.819c-0.485,0-0.982,0.344-1.123,0.434v3.146L40.344,23.961"/>
		<path fill="#FFFFFF" d="M50.44,19.608c-0.648,0-1.114,0.521-1.378,1.104h-0.02v-1.061h-1.831v0.186l0.679,0.197v3.764
			l-0.679,0.162v0.191h2.812V23.93l-0.981-0.161v-2.554c0.269-0.592,0.665-0.83,0.916-0.83c0.189,0,0.259,0.037,0.406,0.162
			c0.053,0.043,0.246,0.099,0.362,0.045c0.22-0.092,0.279-0.254,0.279-0.49C51.005,19.842,50.754,19.608,50.44,19.608"/>
		<path fill="#FFFFFF" d="M38.516,14.869c-0.169,0.112-0.342,0.195-0.598,0.195c-0.406,0-0.537-0.297-0.537-0.965v-2.833
			l1.153-0.172v-0.223H37.38V8.788h-0.376c-0.076,1.193-0.498,1.976-1.563,2.084h-0.176v0.223l0.962,0.172v2.894
			c0,0.918,0.223,1.313,1.082,1.313c0.62,0,1.116-0.233,1.319-0.424L38.516,14.869"/>
		<path fill="#FFFFFF" d="M46.686,23.648c-0.169,0.113-0.342,0.195-0.598,0.195c-0.407,0-0.537-0.297-0.537-0.963v-2.834
			l1.154-0.172v-0.223H45.55v-2.084h-0.376c-0.077,1.193-0.498,1.975-1.563,2.084h-0.175v0.223l0.96,0.172v2.894
			c0,0.918,0.224,1.313,1.083,1.313c0.619,0,1.116-0.232,1.319-0.424L46.686,23.648"/>
		<path fill="#FFFFFF" d="M20.127,21.271h-1.79c0.1-0.77,0.405-1.336,0.94-1.336C19.885,19.936,20.086,20.645,20.127,21.271
			 M18.286,21.625h2.974c-0.03-1.245-0.678-2.023-1.983-2.023c-1.284,0-2.235,1.112-2.235,2.326c0,1.406,0.921,2.326,2.245,2.326
			c1.133,0,1.72-0.443,2.064-0.697l-0.192-0.304c-0.263,0.162-0.79,0.517-1.66,0.464C18.63,23.657,18.195,22.747,18.286,21.625"/>
		<path fill="#FFFFFF" d="M54.196,21.271h-1.79c0.101-0.769,0.405-1.335,0.94-1.335C53.954,19.936,54.157,20.644,54.196,21.271
			 M55.045,18.166l-0.434-0.647l-1.548,1.213l0.253,0.364L55.045,18.166z M52.355,21.625h2.974
			c-0.031-1.246-0.678-2.024-1.983-2.024c-1.284,0-2.236,1.113-2.236,2.327c0,1.406,0.921,2.326,2.246,2.326
			c1.133,0,1.719-0.444,2.063-0.698l-0.191-0.304c-0.263,0.162-0.789,0.517-1.659,0.466C52.7,23.658,52.265,22.746,52.355,21.625"/>
	</g>
</g>
</svg>
